<?xml version="1.0" standalone="no"?>
<!DOCTYPE svg PUBLIC "-//W3C//DTD SVG 1.1//EN"
"http://www.w3.org/Graphics/SVG/1.1/DTD/svg11.dtd">

<svg width="360" height="474" view_box="0 0 360 474"
xmlns="http://www.w3.org/2000/svg"
xmlns:link="http://www.w3.org/1999/xlink">\n\n<desc>Généré par Mocodo 2.3.7 le Thu, 24 Jun 2021 04:44:22</desc>

<rect id="frame" x="0" y="0" width="360" height="474" fill="#f7f7f7" stroke="none" stroke-width="0"/>

<!-- Association answer -->
<line x1="69" y1="60" x2="190" y2="60" stroke="#5aae61" stroke-width="2"/>
<text x="134" y="77.0" fill="#762a83" font-family="Verdana" font-size="12">1,1</text>
<line x1="190" y1="195" x2="190" y2="60" stroke="#5aae61" stroke-width="2"/>
<text x="195.0" y="128" fill="#762a83" font-family="Verdana" font-size="12">0,N</text>
<g id="association-answer">
	<path d="M 205 35 a 14 14 90 0 1 14 14 V 60 h -58 V 49 a 14 14 90 0 1 14 -14" fill="#a6dba0" stroke="#a6dba0" stroke-width="0"/>
	<path d="M 219 60.0 v 11 a 14 14 90 0 1 -14 14 H 175 a 14 14 90 0 1 -14 -14 V 60.0 H 58" fill="#d9f0d3" stroke="#d9f0d3" stroke-width="0"/>
	<rect x="161" y="35" width="58" height="50" fill="none" rx="14" stroke="#5aae61" stroke-width="2"/>
	<line x1="161" y1="60" x2="219" y2="60" stroke="#5aae61" stroke-width="1"/>
	<text x="168" y="52.7" fill="#000000" font-family="Verdana" font-size="12">answer</text>
</g>

<!-- Association comment -->
<line x1="69" y1="355" x2="69" y2="195" stroke="#5aae61" stroke-width="2"/>
<text x="74.0" y="237" fill="#762a83" font-family="Verdana" font-size="12">0,N</text>
<line x1="69" y1="60" x2="69" y2="195" stroke="#5aae61" stroke-width="2"/>
<text x="74.0" y="128" fill="#762a83" font-family="Verdana" font-size="12">1,1</text>
<g id="association-comment">
	<path d="M 91 170 a 14 14 90 0 1 14 14 V 195 h -72 V 184 a 14 14 90 0 1 14 -14" fill="#a6dba0" stroke="#a6dba0" stroke-width="0"/>
	<path d="M 105 195.0 v 11 a 14 14 90 0 1 -14 14 H 47 a 14 14 90 0 1 -14 -14 V 195.0 H 72" fill="#d9f0d3" stroke="#d9f0d3" stroke-width="0"/>
	<rect x="33" y="170" width="72" height="50" fill="none" rx="14" stroke="#5aae61" stroke-width="2"/>
	<line x1="33" y1="195" x2="105" y2="195" stroke="#5aae61" stroke-width="1"/>
	<text x="40" y="187.7" fill="#000000" font-family="Verdana" font-size="12">comment</text>
</g>

<!-- Association post -->
<line x1="69" y1="355" x2="190" y2="355" stroke="#5aae61" stroke-width="2"/>
<text x="116" y="372.0" fill="#762a83" font-family="Verdana" font-size="12">0,N</text>
<line x1="190" y1="195" x2="190" y2="355" stroke="#5aae61" stroke-width="2"/>
<text x="195.0" y="271" fill="#762a83" font-family="Verdana" font-size="12">1,1</text>
<g id="association-post">
	<path d="M 197 330 a 14 14 90 0 1 14 14 V 355 h -42 V 344 a 14 14 90 0 1 14 -14" fill="#a6dba0" stroke="#a6dba0" stroke-width="0"/>
	<path d="M 211 355.0 v 11 a 14 14 90 0 1 -14 14 H 183 a 14 14 90 0 1 -14 -14 V 355.0 H 42" fill="#d9f0d3" stroke="#d9f0d3" stroke-width="0"/>
	<rect x="169" y="330" width="42" height="50" fill="none" rx="14" stroke="#5aae61" stroke-width="2"/>
	<line x1="169" y1="355" x2="211" y2="355" stroke="#5aae61" stroke-width="1"/>
	<text x="176" y="347.7" fill="#000000" font-family="Verdana" font-size="12">post</text>
</g>

<!-- Association belongsTo -->
<line x1="190" y1="195" x2="305" y2="195" stroke="#5aae61" stroke-width="2"/>
<text x="240" y="212.0" fill="#762a83" font-family="Verdana" font-size="12">1,N</text>
<line x1="305" y1="60" x2="305" y2="195" stroke="#5aae61" stroke-width="2"/>
<text x="310.0" y="102" fill="#762a83" font-family="Verdana" font-size="12">0,N</text>
<g id="association-belongsTo">
	<path d="M 329 170 a 14 14 90 0 1 14 14 V 195 h -76 V 184 a 14 14 90 0 1 14 -14" fill="#a6dba0" stroke="#a6dba0" stroke-width="0"/>
	<path d="M 343 195.0 v 11 a 14 14 90 0 1 -14 14 H 281 a 14 14 90 0 1 -14 -14 V 195.0 H 76" fill="#d9f0d3" stroke="#d9f0d3" stroke-width="0"/>
	<rect x="267" y="170" width="76" height="50" fill="none" rx="14" stroke="#5aae61" stroke-width="2"/>
	<line x1="267" y1="195" x2="343" y2="195" stroke="#5aae61" stroke-width="1"/>
	<text x="274" y="187.7" fill="#000000" font-family="Verdana" font-size="12">belongsTo</text>
</g>

<!-- Entity POSTS -->
<g id="entity-POSTS">
	<g id="frame-POSTS">
		<rect x="145" y="136" width="90" height="25" fill="#c2a5cf" stroke="#c2a5cf" stroke-width="0"/>
		<rect x="145" y="161.0" width="90" height="93" fill="#e7d4e8" stroke="#e7d4e8" stroke-width="0"/>
		<rect x="145" y="136" width="90" height="118" fill="none" stroke="#9970ab" stroke-width="2"/>
		<line x1="145" y1="161" x2="235" y2="161" stroke="#9970ab" stroke-width="1"/>
	</g>
	<text x="169" y="153.7" fill="#000000" font-family="Verdana" font-size="12">POSTS</text>
	<text x="150" y="178.7" fill="#000000" font-family="Verdana" font-size="12">post_id</text>
	<line x1="150" y1="181" x2="195" y2="181" stroke="#000000" stroke-width="1"/>
	<text x="150" y="195.8" fill="#000000" font-family="Verdana" font-size="12">tittle</text>
	<text x="150" y="212.8" fill="#000000" font-family="Verdana" font-size="12">content_post</text>
	<text x="150" y="229.8" fill="#000000" font-family="Verdana" font-size="12">pictures</text>
	<text x="150" y="246.8" fill="#000000" font-family="Verdana" font-size="12">pseudo</text>
</g>

<!-- Entity CATEGORIES -->
<g id="entity-CATEGORIES">
	<g id="frame-CATEGORIES">
		<rect x="259" y="35" width="92" height="25" fill="#c2a5cf" stroke="#c2a5cf" stroke-width="0"/>
		<rect x="259" y="60.0" width="92" height="25" fill="#e7d4e8" stroke="#e7d4e8" stroke-width="0"/>
		<rect x="259" y="35" width="92" height="50" fill="none" stroke="#9970ab" stroke-width="2"/>
		<line x1="259" y1="60" x2="351" y2="60" stroke="#9970ab" stroke-width="1"/>
	</g>
	<text x="264" y="52.7" fill="#000000" font-family="Verdana" font-size="12">CATEGORIES</text>
	<text x="264" y="77.8" fill="#000000" font-family="Verdana" font-size="12">name</text>
	<line x1="264" y1="80" x2="299" y2="80" stroke="#000000" stroke-width="1"/>
</g>

<!-- Entity COMMENTS -->
<g id="entity-COMMENTS">
	<g id="frame-COMMENTS">
		<rect x="9" y="9" width="120" height="25" fill="#c2a5cf" stroke="#c2a5cf" stroke-width="0"/>
		<rect x="9" y="34.0" width="120" height="77" fill="#e7d4e8" stroke="#e7d4e8" stroke-width="0"/>
		<rect x="9" y="9" width="120" height="102" fill="none" stroke="#9970ab" stroke-width="2"/>
		<line x1="9" y1="34" x2="129" y2="34" stroke="#9970ab" stroke-width="1"/>
	</g>
	<text x="33" y="26.7" fill="#000000" font-family="Verdana" font-size="12">COMMENTS</text>
	<text x="14" y="51.7" fill="#000000" font-family="Verdana" font-size="12">comment_id</text>
	<line x1="14" y1="54" x2="90" y2="54" stroke="#000000" stroke-width="1"/>
	<text x="14" y="68.8" fill="#000000" font-family="Verdana" font-size="12">content_comment</text>
	<text x="14" y="85.8" fill="#000000" font-family="Verdana" font-size="12">created_at</text>
	<text x="14" y="102.8" fill="#000000" font-family="Verdana" font-size="12">pseudo</text>
</g>

<!-- Entity USERS -->
<g id="entity-USERS">
	<g id="frame-USERS">
		<rect x="27" y="245" width="84" height="25" fill="#c2a5cf" stroke="#c2a5cf" stroke-width="0"/>
		<rect x="27" y="270.0" width="84" height="195" fill="#e7d4e8" stroke="#e7d4e8" stroke-width="0"/>
		<rect x="27" y="245" width="84" height="220" fill="none" stroke="#9970ab" stroke-width="2"/>
		<line x1="27" y1="270" x2="111" y2="270" stroke="#9970ab" stroke-width="1"/>
	</g>
	<text x="48" y="262.7" fill="#000000" font-family="Verdana" font-size="12">USERS</text>
	<text x="32" y="287.7" fill="#000000" font-family="Verdana" font-size="12">pseudo</text>
	<line x1="32" y1="290" x2="76" y2="290" stroke="#000000" stroke-width="1"/>
	<text x="32" y="304.7" fill="#000000" font-family="Verdana" font-size="12">email</text>
	<text x="32" y="321.7" fill="#000000" font-family="Verdana" font-size="12">password</text>
	<text x="32" y="338.7" fill="#000000" font-family="Verdana" font-size="12">first_name</text>
	<text x="32" y="355.8" fill="#000000" font-family="Verdana" font-size="12">last_name</text>
	<text x="32" y="372.8" fill="#000000" font-family="Verdana" font-size="12">phone</text>
	<text x="32" y="389.8" fill="#000000" font-family="Verdana" font-size="12">address</text>
	<text x="32" y="406.8" fill="#000000" font-family="Verdana" font-size="12">city</text>
	<text x="32" y="423.8" fill="#000000" font-family="Verdana" font-size="12">country</text>
	<text x="32" y="440.8" fill="#000000" font-family="Verdana" font-size="12">postal_code</text>
	<text x="32" y="457.8" fill="#000000" font-family="Verdana" font-size="12">isadmin</text>
</g>
</svg>